<svg width="36" height="36" viewBox="0 0 36 36" fill="none" xmlns="http://www.w3.org/2000/svg">
<path d="M9.1875 33C9.49816 33 9.75 32.7482 9.75 32.4375C9.75 32.1268 9.49816 31.875 9.1875 31.875C8.87684 31.875 8.625 32.1268 8.625 32.4375C8.625 32.7482 8.87684 33 9.1875 33Z" fill="#9098B1" stroke="#9098B1" stroke-width="2" stroke-miterlimit="10" stroke-linecap="round" stroke-linejoin="round"/>
<path d="M17.0625 33C17.3732 33 17.625 32.7482 17.625 32.4375C17.625 32.1268 17.3732 31.875 17.0625 31.875C16.7518 31.875 16.5 32.1268 16.5 32.4375C16.5 32.7482 16.7518 33 17.0625 33Z" fill="#9098B1" stroke="#9098B1" stroke-width="2" stroke-miterlimit="10" stroke-linecap="round" stroke-linejoin="round"/>
<path d="M3 15H5.25L7.5 28.5H18.75L21 18.375H6.375" stroke="#9098B1" stroke-width="2" stroke-linecap="round" stroke-linejoin="round"/>
<circle cx="24" cy="12" r="11" fill="#FB7181" stroke="white" stroke-width="2"/>
<path d="M21.5336 14.63C21.7602 14.45 21.8636 14.3667 21.8436 14.38C22.4969 13.84 23.0102 13.3967 23.3836 13.05C23.7636 12.7033 24.0836 12.34 24.3436 11.96C24.6036 11.58 24.7336 11.21 24.7336 10.85C24.7336 10.5767 24.6702 10.3633 24.5436 10.21C24.4169 10.0567 24.2269 9.98 23.9736 9.98C23.7202 9.98 23.5202 10.0767 23.3736 10.27C23.2336 10.4567 23.1636 10.7233 23.1636 11.07H21.5136C21.5269 10.5033 21.6469 10.03 21.8736 9.65C22.1069 9.27 22.4102 8.99 22.7836 8.81C23.1636 8.63 23.5836 8.54 24.0436 8.54C24.8369 8.54 25.4336 8.74333 25.8336 9.15C26.2402 9.55667 26.4436 10.0867 26.4436 10.74C26.4436 11.4533 26.2002 12.1167 25.7136 12.73C25.2269 13.3367 24.6069 13.93 23.8536 14.51H26.5536V15.9H21.5336V14.63Z" fill="white"/>
</svg>
