<svg width="20" height="20" viewBox="0 0 20 20" fill="none" xmlns="http://www.w3.org/2000/svg">
<path fill-rule="evenodd" clip-rule="evenodd" d="M10 2.00056C8.3971 2.00056 7.09766 3.3 7.09766 4.90295C7.09766 6.50589 8.3971 7.80533 10 7.80533C11.603 7.80533 12.9024 6.50589 12.9024 4.90295C12.9024 3.3 11.603 2.00056 10 2.00056ZM5.09766 4.90295C5.09766 2.19544 7.29253 0.000564575 10 0.000564575C12.7075 0.000564575 14.9024 2.19544 14.9024 4.90295C14.9024 7.61046 12.7075 9.80533 10 9.80533C7.29253 9.80533 5.09766 7.61046 5.09766 4.90295Z" fill="#9098B1"/>
<path fill-rule="evenodd" clip-rule="evenodd" d="M7.51784 13.3905C4.47035 13.3905 2 15.8608 2 18.9083V18.9994C2 19.5517 1.55228 19.9994 1 19.9994C0.447715 19.9994 0 19.5517 0 18.9994V18.9083C0 14.7562 3.36578 11.3905 7.51784 11.3905H12.4822C16.6342 11.3905 20 14.7562 20 18.9083V18.9994C20 19.5517 19.5523 19.9994 19 19.9994C18.4477 19.9994 18 19.5517 18 18.9994V18.9083C18 15.8608 15.5296 13.3905 12.4822 13.3905H7.51784Z" fill="#9098B1"/>
</svg>
